<?xml version="1.0" encoding="UTF-8"?>
<svg id="_レイヤー_1" data-name="レイヤー 1" xmlns="http://www.w3.org/2000/svg" viewBox="0 0 400.78 113.15">
  <defs>
    <style>
      .cls-1 {
        fill: #231815;
      }

      .cls-1, .cls-2, .cls-3 {
        stroke-width: 0px;
      }

      .cls-2 {
        fill: #fff;
      }

      .cls-3 {
        fill: #eaa65f;
      }
    </style>
  </defs>
  <g>
    <g>
      <path class="cls-2" d="m119.22,33.16c-5.95-10.28-14.57-16.57-20.59-15.53C90.1,7.29,77.2.7,62.74.7s-27.35,6.6-35.87,16.94c-6.03-1.05-14.65,5.24-20.59,15.53-6.81,11.78-7.53,24.33-1.62,28.04,3.39,2.13,8.22.88,13.02-2.78,1.28,5.15,3.42,9.97,6.27,14.28-1.45,3.42-2.25,7.18-2.25,11.13,0,15.8,12.81,28.62,28.61,28.62,4.46,0,8.68-1.02,12.44-2.84,3.76,1.82,7.99,2.84,12.45,2.84,15.8,0,28.61-12.82,28.61-28.62,0-3.95-.8-7.72-2.25-11.13,2.84-4.31,4.98-9.12,6.27-14.27,4.79,3.66,9.63,4.91,13.02,2.78,5.91-3.71,5.19-16.27-1.62-28.04Z"/>
      <path class="cls-3" d="m75.19,113.15c-4.35,0-8.54-.93-12.45-2.76-3.91,1.83-8.09,2.76-12.44,2.76-16.16,0-29.31-13.15-29.31-29.32,0-3.83.73-7.55,2.16-11.05-2.64-4.07-4.62-8.49-5.9-13.18-4.94,3.49-9.63,4.3-12.97,2.2-6.22-3.9-5.6-16.91,1.39-28.99,5.93-10.25,14.45-16.72,20.91-15.92C35.58,6.15,48.74,0,62.74,0s27.17,6.15,36.17,16.89c6.46-.8,14.98,5.67,20.91,15.92h0c6.98,12.08,7.6,25.08,1.39,28.99-3.34,2.1-8.03,1.29-12.97-2.2-1.28,4.68-3.26,9.1-5.89,13.17,1.43,3.51,2.16,7.23,2.16,11.06,0,16.17-13.15,29.32-29.31,29.32Zm-12.45-4.31l.3.15c3.81,1.84,7.89,2.77,12.15,2.77,15.39,0,27.91-12.52,27.91-27.92,0-3.77-.74-7.43-2.19-10.86l-.15-.34.21-.31c2.84-4.31,4.92-9.04,6.17-14.05l.26-1.03.84.65c4.75,3.63,9.21,4.63,12.22,2.74,5.59-3.51,4.76-15.67-1.85-27.1-5.67-9.81-14.03-16.2-19.87-15.19l-.4.07-.26-.31C89.35,7.48,76.47,1.4,62.74,1.4s-26.6,6.08-35.33,16.69l-.26.31-.4-.07c-5.84-1.02-14.2,5.37-19.87,15.19C.27,44.95-.56,57.11,5.03,60.62c3.01,1.89,7.47.89,12.22-2.74l.85-.65.26,1.03c1.25,5.02,3.33,9.75,6.17,14.06l.21.31-.15.35c-1.46,3.44-2.19,7.09-2.19,10.85,0,15.4,12.52,27.92,27.91,27.92,4.25,0,8.33-.93,12.14-2.77l.3-.15Z"/>
    </g>
    <g>
      <circle class="cls-1" cx="45.55" cy="58.78" r="5.73"/>
      <circle class="cls-1" cx="79.95" cy="58.78" r="5.73"/>
      <circle class="cls-2" cx="44.74" cy="57.49" r="2.02"/>
      <circle class="cls-2" cx="81.22" cy="57.49" r="2.02"/>
    </g>
    <g>
      <path class="cls-1" d="m62.5,86.83l-.18-.54c-1.18-3.94-3.1-11.98-3.1-11.98-.13-.44.09-.53.3-.2l.27.33c.61.72,1.51,2.11,1.51,2.11.06.09.17.07.2-.04l.1-.33c.4-1.21.91-2.34.91-2.34.12-.25.36-.22.45.01,0,0,.54,1.22,1.04,2.66h0c.04.1.15.12.2.04,0,0,.93-1.36,1.45-1.95l.33-.47c.24-.38.4-.22.3.2h0c-.97,4.05-1.91,7.97-3.09,11.92l-.15.58c-.07.36-.44.36-.55,0Z"/>
      <path class="cls-1" d="m62.79,87.79c-.43,0-.81-.3-.95-.75l-.18-.53c-1.18-3.93-3.1-11.96-3.12-12.04-.25-.84.31-1.14.42-1.19.31-.14.8-.1,1.15.46l.22.26c.28.32.61.78.89,1.18.33-.89.64-1.59.66-1.62.17-.38.51-.6.89-.59.37.01.71.26.85.63,0,.01.31.69.66,1.63.28-.39.61-.82.85-1.1l.28-.41c.42-.67.95-.52,1.1-.45.16.07.65.35.45,1.21-.88,3.69-1.88,7.87-3.11,11.96l-.14.55c-.08.44-.44.77-.89.8-.02,0-.03,0-.05,0Zm-.42-1.12s0,.02,0,.03v-.03Zm.8-.04h.01-.01Zm-2.68-10.03c.6,2.44,1.53,6.12,2.26,8.67.86-2.94,1.6-5.9,2.27-8.67-.14.21-.24.34-.24.35-.15.21-.52.38-.76.35-.3-.03-.56-.24-.67-.53-.21-.61-.43-1.18-.61-1.64-.15.37-.31.82-.47,1.28l-.1.31c-.08.26-.41.55-.68.58-.29.03-.59-.1-.76-.35,0,0-.09-.15-.23-.35Zm3.13-.44s0,0,0,0c0,0,0,0,0,0Zm-1.31-2.02s0,.01,0,.02c0-.01,0-.02,0-.02Z"/>
    </g>
    <path class="cls-1" d="m70.28,93.63c-3.33,0-5.85-1.14-7.49-3.39-1.56,2.25-4,3.39-7.28,3.39-2.87,0-5.39-1.8-6.25-4.49-.24-.73.17-1.52.9-1.76.73-.24,1.52.17,1.76.9.49,1.53,1.94,2.55,3.59,2.55,2.72,0,4.45-.95,5.45-2.99.22-.45.35-1.03.41-1.79.06-.73.66-1.29,1.39-1.29h0c.73,0,1.34.56,1.39,1.29.04.55.13,1.25.4,1.75,1.09,2.07,2.91,3.03,5.72,3.03,1.57,0,3.33-.67,3.53-2.54.09-.77.78-1.32,1.54-1.24.77.09,1.32.78,1.24,1.54-.33,3.01-2.87,5.03-6.31,5.03Z"/>
  </g>
  <g>
    <path class="cls-3" d="m144.5,87.19V25.96h17.89c4.09,0,7.66.55,10.71,1.64,3.05,1.09,5.43,2.83,7.14,5.21,1.71,2.38,2.56,5.56,2.56,9.53,0,3.75-.85,6.92-2.56,9.49-1.71,2.58-4.09,4.51-7.14,5.8-3.05,1.29-6.62,1.93-10.71,1.93h-12.85v27.64h-5.04Zm5.04-31.84h11.76c5.26,0,9.29-1.06,12.1-3.19,2.8-2.13,4.2-5.4,4.2-9.83s-1.4-7.63-4.2-9.45c-2.8-1.82-6.83-2.73-12.1-2.73h-11.76v25.2Zm28.81,31.84l-17.14-29.06,4.62-1.85,18.23,30.91h-5.71Z"/>
    <path class="cls-3" d="m217.15,88.29c-4.99,0-9.38-1.31-13.19-3.95-3.81-2.63-6.8-6.33-8.99-11.09s-3.28-10.39-3.28-16.88,1.09-12.1,3.28-16.8,5.18-8.33,8.99-10.88c3.81-2.55,8.2-3.82,13.19-3.82s9.31,1.29,13.15,3.86c3.83,2.58,6.83,6.2,8.99,10.88,2.16,4.68,3.23,10.26,3.23,16.76s-1.08,12.12-3.23,16.88c-2.16,4.76-5.15,8.46-8.99,11.09-3.84,2.63-8.22,3.95-13.15,3.95Zm0-4.54c4.03,0,7.56-1.13,10.58-3.4,3.02-2.27,5.38-5.45,7.06-9.53,1.68-4.09,2.52-8.9,2.52-14.45s-.84-10.33-2.52-14.36c-1.68-4.03-4.03-7.14-7.06-9.32-3.02-2.18-6.55-3.28-10.58-3.28s-7.57,1.09-10.63,3.28c-3.05,2.18-5.42,5.29-7.1,9.32-1.68,4.03-2.52,8.82-2.52,14.36s.84,10.36,2.52,14.45c1.68,4.09,4.04,7.27,7.1,9.53,3.05,2.27,6.59,3.4,10.63,3.4Z"/>
    <path class="cls-3" d="m256.55,87.19V25.96h5.21l25.03,42.08,6.89,12.35h.42c-.22-3.02-.41-6.06-.55-9.11-.14-3.05-.21-6.06-.21-9.03V25.96h4.79v61.24h-5.21l-25.03-42.17-6.8-12.26h-.34c.11,2.97.24,5.91.38,8.82.14,2.91.21,5.88.21,8.9v36.71h-4.79Z"/>
    <path class="cls-3" d="m311.57,87.19v-3.02l34.61-53.84h-31.5v-4.37h37.8v2.94l-34.61,53.93h34.94v4.37h-41.24Z"/>
    <path class="cls-3" d="m366,87.19V25.96h33.85v4.37h-28.81v22.18h24.19v4.37h-24.19v25.96h29.74v4.37h-34.78Z"/>
  </g>
</svg>